<svg xmlns="http://www.w3.org/2000/svg" width="480" height="480"><path d="M306,272L358,305L398,197Z" fill="#4e1132" stroke="#4e1132" stroke-width="1.51"/><path d="M398,197L291,203L306,272Z" fill="#541129" stroke="#541129" stroke-width="1.51"/><path d="M497,280L463,201L398,197Z" fill="#3d1115" stroke="#3d1115" stroke-width="1.51"/><path d="M358,305L497,280L398,197Z" fill="#421024" stroke="#421024" stroke-width="1.51"/><path d="M358,305L363,391L497,280Z" fill="#2a1237" stroke="#2a1237" stroke-width="1.51"/><path d="M304,421L363,391L358,305Z" fill="#231446" stroke="#231446" stroke-width="1.51"/><path d="M306,272L304,421L358,305Z" fill="#3d133d" stroke="#3d133d" stroke-width="1.51"/><path d="M291,203L208,262L306,272Z" fill="#6d0819" stroke="#6d0819" stroke-width="1.51"/><path d="M377,57L311,98L398,197Z" fill="#0c1a38" stroke="#0c1a38" stroke-width="1.51"/><path d="M398,197L311,98L291,203Z" fill="#39182e" stroke="#39182e" stroke-width="1.51"/><path d="M291,203L207,190L208,262Z" fill="#6c0e11" stroke="#6c0e11" stroke-width="1.51"/><path d="M206,120L207,190L291,203Z" fill="#571816" stroke="#571816" stroke-width="1.51"/><path d="M208,262L304,421L306,272Z" fill="#550f2d" stroke="#550f2d" stroke-width="1.51"/><path d="M463,201L377,57L398,197Z" fill="#211627" stroke="#211627" stroke-width="1.51"/><path d="M311,98L206,120L291,203Z" fill="#441a20" stroke="#441a20" stroke-width="1.51"/><path d="M207,190L118,265L208,262Z" fill="#5c1615" stroke="#5c1615" stroke-width="1.51"/><path d="M304,12L206,120L311,98Z" fill="#38181e" stroke="#38181e" stroke-width="1.51"/><path d="M363,391L476,423L497,280Z" fill="#141032" stroke="#141032" stroke-width="1.51"/><path d="M365,467L476,423L363,391Z" fill="#130f2c" stroke="#130f2c" stroke-width="1.51"/><path d="M304,421L365,467L363,391Z" fill="#1f1136" stroke="#1f1136" stroke-width="1.51"/><path d="M497,280L591,207L463,201Z" fill="#3a100a" stroke="#3a100a" stroke-width="1.51"/><path d="M463,201L516,55L377,57Z" fill="#08121c" stroke="#08121c" stroke-width="1.51"/><path d="M593,299L591,207L497,280Z" fill="#380f11" stroke="#380f11" stroke-width="1.51"/><path d="M377,57L304,12L311,98Z" fill="#23152a" stroke="#23152a" stroke-width="1.51"/><path d="M476,423L593,299L497,280Z" fill="#1f0f23" stroke="#1f0f23" stroke-width="1.51"/><path d="M304,421L279,473L365,467Z" fill="#291026" stroke="#291026" stroke-width="1.51"/><path d="M168,416L279,473L304,421Z" fill="#42101b" stroke="#42101b" stroke-width="1.51"/><path d="M208,262L168,416L304,421Z" fill="#4b122e" stroke="#4b122e" stroke-width="1.51"/><path d="M93,157L118,265L207,190Z" fill="#3d1d1c" stroke="#3d1d1c" stroke-width="1.51"/><path d="M591,207L516,55L463,201Z" fill="#1b1213" stroke="#1b1213" stroke-width="1.51"/><path d="M377,57L372,-3L304,12Z" fill="#19122b" stroke="#19122b" stroke-width="1.51"/><path d="M517,-7L372,-3L377,57Z" fill="#0f0b1b" stroke="#0f0b1b" stroke-width="1.51"/><path d="M118,265L168,416L208,262Z" fill="#40182a" stroke="#40182a" stroke-width="1.51"/><path d="M365,467L461,488L476,423Z" fill="#0e071a" stroke="#0e071a" stroke-width="1.51"/><path d="M476,423L614,405L593,299Z" fill="#120b25" stroke="#120b25" stroke-width="1.51"/><path d="M397,576L461,488L365,467Z" fill="#0f081c" stroke="#0f081c" stroke-width="1.51"/><path d="M206,120L93,157L207,190Z" fill="#351d1e" stroke="#351d1e" stroke-width="1.51"/><path d="M55,114L93,157L206,120Z" fill="#0a1d24" stroke="#0a1d24" stroke-width="1.51"/><path d="M660,171L617,113L591,207Z" fill="#1f1312" stroke="#1f1312" stroke-width="1.51"/><path d="M591,207L617,113L516,55Z" fill="#071116" stroke="#071116" stroke-width="1.51"/><path d="M461,488L561,459L476,423Z" fill="#05030c" stroke="#05030c" stroke-width="1.51"/><path d="M594,-14L517,-7L516,55Z" fill="#040506" stroke="#040506" stroke-width="1.51"/><path d="M516,55L517,-7L377,57Z" fill="#06090e" stroke="#06090e" stroke-width="1.51"/><path d="M561,459L614,405L476,423Z" fill="#0b0516" stroke="#0b0516" stroke-width="1.51"/><path d="M667,302L660,171L591,207Z" fill="#39100a" stroke="#39100a" stroke-width="1.51"/><path d="M667,302L591,207L593,299Z" fill="#360f13" stroke="#360f13" stroke-width="1.51"/><path d="M614,405L667,302L593,299Z" fill="#1f0f23" stroke="#1f0f23" stroke-width="1.51"/><path d="M279,473L397,576L365,467Z" fill="#1a0e26" stroke="#1a0e26" stroke-width="1.51"/><path d="M168,416L166,491L279,473Z" fill="#331215" stroke="#331215" stroke-width="1.51"/><path d="M88,482L166,491L168,416Z" fill="#16131a" stroke="#16131a" stroke-width="1.51"/><path d="M75,396L168,416L118,265Z" fill="#0d1a39" stroke="#0d1a39" stroke-width="1.51"/><path d="M304,12L178,-12L206,120Z" fill="#3d1613" stroke="#3d1613" stroke-width="1.51"/><path d="M268,-126L178,-12L304,12Z" fill="#3e110f" stroke="#3e110f" stroke-width="1.51"/><path d="M268,-126L304,12L372,-3Z" fill="#291120" stroke="#291120" stroke-width="1.51"/><path d="M-33,318L75,396L118,265Z" fill="#251529" stroke="#251529" stroke-width="1.51"/><path d="M93,157L8,165L118,265Z" fill="#301a1a" stroke="#301a1a" stroke-width="1.51"/><path d="M178,-12L55,114L206,120Z" fill="#181a1e" stroke="#181a1e" stroke-width="1.51"/><path d="M461,488L520,599L561,459Z" fill="#000000" stroke="#000000" stroke-width="1.51"/><path d="M286,621L397,576L279,473Z" fill="#250f20" stroke="#250f20" stroke-width="1.51"/><path d="M517,-7L415,-101L372,-3Z" fill="#0d0816" stroke="#0d0816" stroke-width="1.51"/><path d="M617,113L594,-14L516,55Z" fill="#030a0d" stroke="#030a0d" stroke-width="1.51"/><path d="M674,93L594,-14L617,113Z" fill="#030b0f" stroke="#030b0f" stroke-width="1.51"/><path d="M720,-3L674,93L660,171Z" fill="#020e13" stroke="#020e13" stroke-width="1.51"/><path d="M660,171L674,93L617,113Z" fill="#071116" stroke="#071116" stroke-width="1.51"/><path d="M491,-95L415,-101L517,-7Z" fill="#050406" stroke="#050406" stroke-width="1.51"/><path d="M55,114L8,165L93,157Z" fill="#17181b" stroke="#17181b" stroke-width="1.51"/><path d="M166,491L170,566L279,473Z" fill="#30120e" stroke="#30120e" stroke-width="1.51"/><path d="M75,396L88,482L168,416Z" fill="#0b1423" stroke="#0b1423" stroke-width="1.51"/><path d="M-45,459L88,482L75,396Z" fill="#0b0c17" stroke="#0b0c17" stroke-width="1.51"/><path d="M593,-92L491,-95L517,-7Z" fill="#040303" stroke="#040303" stroke-width="1.51"/><path d="M88,482L170,566L166,491Z" fill="#141214" stroke="#141214" stroke-width="1.51"/><path d="M178,-12L56,-5L55,114Z" fill="#061419" stroke="#061419" stroke-width="1.51"/><path d="M55,114L-16,57L8,165Z" fill="#051419" stroke="#051419" stroke-width="1.51"/><path d="M415,-101L268,-126L372,-3Z" fill="#191029" stroke="#191029" stroke-width="1.51"/><path d="M491,-95L268,-126L415,-101Z" fill="#130d22" stroke="#130d22" stroke-width="1.51"/><path d="M170,566L286,621L279,473Z" fill="#3d0f0b" stroke="#3d0f0b" stroke-width="1.51"/><path d="M397,576L520,599L461,488Z" fill="#04030b" stroke="#04030b" stroke-width="1.51"/><path d="M718,469L714,407L614,405Z" fill="#0b0617" stroke="#0b0617" stroke-width="1.51"/><path d="M614,405L714,407L667,302Z" fill="#120c26" stroke="#120c26" stroke-width="1.51"/><path d="M458,697L520,599L397,576Z" fill="#05030b" stroke="#05030b" stroke-width="1.51"/><path d="M718,469L614,405L561,459Z" fill="#080411" stroke="#080411" stroke-width="1.51"/><path d="M667,302L714,407L660,171Z" fill="#2e0f19" stroke="#2e0f19" stroke-width="1.51"/><path d="M95,-102L56,-5L178,-12Z" fill="#061317" stroke="#061317" stroke-width="1.51"/><path d="M8,165L-33,318L118,265Z" fill="#3f1413" stroke="#3f1413" stroke-width="1.51"/><path d="M594,-14L593,-92L517,-7Z" fill="#040303" stroke="#040303" stroke-width="1.51"/><path d="M491,-95L687,-99L268,-126Z" fill="#040303" stroke="#040303" stroke-width="1.51"/><path d="M687,-99L593,-92L594,-14Z" fill="#040303" stroke="#040303" stroke-width="1.51"/><path d="M520,599L624,563L561,459Z" fill="#000000" stroke="#000000" stroke-width="1.51"/><path d="M-134,319L-117,367L-33,318Z" fill="#211025" stroke="#211025" stroke-width="1.51"/><path d="M56,-5L-16,57L55,114Z" fill="#071114" stroke="#071114" stroke-width="1.51"/><path d="M624,563L718,469L561,459Z" fill="#000000" stroke="#000000" stroke-width="1.51"/><path d="M590,701L676,598L624,563Z" fill="#000000" stroke="#000000" stroke-width="1.51"/><path d="M286,621L362,671L397,576Z" fill="#190e27" stroke="#190e27" stroke-width="1.51"/><path d="M279,696L362,671L286,621Z" fill="#290f1d" stroke="#290f1d" stroke-width="1.51"/><path d="M170,566L213,660L286,621Z" fill="#38100b" stroke="#38100b" stroke-width="1.51"/><path d="M88,482L114,600L170,566Z" fill="#061116" stroke="#061116" stroke-width="1.51"/><path d="M-11,602L114,600L88,482Z" fill="#030b0f" stroke="#030b0f" stroke-width="1.51"/><path d="M56,-5L-14,8L-16,57Z" fill="#070a0c" stroke="#070a0c" stroke-width="1.51"/><path d="M268,-126L162,-141L178,-12Z" fill="#311310" stroke="#311310" stroke-width="1.51"/><path d="M687,-99L162,-141L268,-126Z" fill="#140f27" stroke="#140f27" stroke-width="1.51"/><path d="M-33,318L-39,414L75,396Z" fill="#140e27" stroke="#140e27" stroke-width="1.51"/><path d="M162,-141L95,-102L178,-12Z" fill="#181416" stroke="#181416" stroke-width="1.51"/><path d="M718,469L720,-3L714,407Z" fill="#2f0f19" stroke="#2f0f19" stroke-width="1.51"/><path d="M714,407L720,-3L660,171Z" fill="#2b120f" stroke="#2b120f" stroke-width="1.51"/><path d="M674,93L720,-3L594,-14Z" fill="#040708" stroke="#040708" stroke-width="1.51"/><path d="M114,600L213,660L170,566Z" fill="#201312" stroke="#201312" stroke-width="1.51"/><path d="M-133,172L-33,318L8,165Z" fill="#38130e" stroke="#38130e" stroke-width="1.51"/><path d="M-117,367L-45,459L-39,414Z" fill="#110b1c" stroke="#110b1c" stroke-width="1.51"/><path d="M-24,-123L-14,8L56,-5Z" fill="#080707" stroke="#080707" stroke-width="1.51"/><path d="M-117,367L-39,414L-33,318Z" fill="#150f29" stroke="#150f29" stroke-width="1.51"/><path d="M-39,414L-45,459L75,396Z" fill="#10091a" stroke="#10091a" stroke-width="1.51"/><path d="M213,660L279,696L286,621Z" fill="#390f10" stroke="#390f10" stroke-width="1.51"/><path d="M362,671L458,697L397,576Z" fill="#0f081d" stroke="#0f081d" stroke-width="1.51"/><path d="M279,696L458,697L362,671Z" fill="#130c28" stroke="#130c28" stroke-width="1.51"/><path d="M720,-3L687,-99L594,-14Z" fill="#040303" stroke="#040303" stroke-width="1.51"/><path d="M593,-92L687,-99L491,-95Z" fill="#040303" stroke="#040303" stroke-width="1.51"/><path d="M590,701L624,563L520,599Z" fill="#000000" stroke="#000000" stroke-width="1.51"/><path d="M624,563L676,598L718,469Z" fill="#000000" stroke="#000000" stroke-width="1.51"/><path d="M-133,172L8,165L-16,57Z" fill="#101417" stroke="#101417" stroke-width="1.51"/><path d="M-141,77L-133,172L-16,57Z" fill="#061216" stroke="#061216" stroke-width="1.51"/><path d="M-133,172L-134,319L-33,318Z" fill="#381115" stroke="#381115" stroke-width="1.51"/><path d="M15,704L590,701L458,697Z" fill="#160e28" stroke="#160e28" stroke-width="1.51"/><path d="M458,697L590,701L520,599Z" fill="#000000" stroke="#000000" stroke-width="1.51"/><path d="M-95,509L-11,602L-45,459Z" fill="#040303" stroke="#040303" stroke-width="1.51"/><path d="M-45,459L-11,602L88,482Z" fill="#040505" stroke="#040505" stroke-width="1.51"/><path d="M114,600L67,690L213,660Z" fill="#0c1215" stroke="#0c1215" stroke-width="1.51"/><path d="M213,660L67,690L279,696Z" fill="#29120f" stroke="#29120f" stroke-width="1.51"/><path d="M-24,-123L56,-5L95,-102Z" fill="#070b0e" stroke="#070b0e" stroke-width="1.51"/><path d="M-127,-98L-115,20L-14,8Z" fill="#080606" stroke="#080606" stroke-width="1.51"/><path d="M-14,8L-115,20L-16,57Z" fill="#070a0b" stroke="#070a0b" stroke-width="1.51"/><path d="M-117,367L-95,509L-45,459Z" fill="#0c0713" stroke="#0c0713" stroke-width="1.51"/><path d="M-116,582L-95,509L-117,367Z" fill="#040303" stroke="#040303" stroke-width="1.51"/><path d="M-115,20L-141,77L-16,57Z" fill="#070d0f" stroke="#070d0f" stroke-width="1.51"/><path d="M-133,172L-141,77L-134,319Z" fill="#2c1412" stroke="#2c1412" stroke-width="1.51"/><path d="M162,-141L-24,-123L95,-102Z" fill="#070f13" stroke="#070f13" stroke-width="1.51"/><path d="M-11,602L67,690L114,600Z" fill="#030b0e" stroke="#030b0e" stroke-width="1.51"/><path d="M15,704L67,690L-11,602Z" fill="#030608" stroke="#030608" stroke-width="1.51"/><path d="M590,701L706,684L676,598Z" fill="#000000" stroke="#000000" stroke-width="1.51"/><path d="M676,598L706,684L718,469Z" fill="#000000" stroke="#000000" stroke-width="1.51"/><path d="M67,690L15,704L279,696Z" fill="#021116" stroke="#021116" stroke-width="1.51"/><path d="M279,696L15,704L458,697Z" fill="#3b0f0d" stroke="#3b0f0d" stroke-width="1.51"/><path d="M-137,674L15,704L-11,602Z" fill="#040303" stroke="#040303" stroke-width="1.51"/><path d="M-95,509L-116,582L-11,602Z" fill="#040303" stroke="#040303" stroke-width="1.51"/><path d="M-134,319L-116,582L-117,367Z" fill="#10091a" stroke="#10091a" stroke-width="1.51"/><path d="M-115,20L-127,-98L-141,77Z" fill="#080606" stroke="#080606" stroke-width="1.51"/><path d="M-24,-123L-127,-98L-14,8Z" fill="#080606" stroke="#080606" stroke-width="1.51"/><path d="M-141,77L-137,674L-134,319Z" fill="#17102a" stroke="#17102a" stroke-width="1.51"/><path d="M-134,319L-137,674L-116,582Z" fill="#040303" stroke="#040303" stroke-width="1.51"/><path d="M-116,582L-137,674L-11,602Z" fill="#040303" stroke="#040303" stroke-width="1.51"/></svg>