<svg xmlns="http://www.w3.org/2000/svg" width="1440" height="900"><path d="M789,517L807,288L581,505Z" fill="#010004" stroke="#010004" stroke-width="1.51"/><path d="M807,288L469,375L581,505Z" fill="#0f021b" stroke="#0f021b" stroke-width="1.51"/><path d="M789,517L1110,374L807,288Z" fill="#070010" stroke="#070010" stroke-width="1.51"/><path d="M581,505L658,828L789,517Z" fill="#030108" stroke="#030108" stroke-width="1.51"/><path d="M789,517L1105,598L1110,374Z" fill="#000000" stroke="#000000" stroke-width="1.51"/><path d="M271,931L658,828L581,505Z" fill="#2c0b1e" stroke="#2c0b1e" stroke-width="1.51"/><path d="M807,288L471,19L469,375Z" fill="#130538" stroke="#130538" stroke-width="1.51"/><path d="M948,20L471,19L807,288Z" fill="#2a0b1a" stroke="#2a0b1a" stroke-width="1.51"/><path d="M1110,374L948,20L807,288Z" fill="#14032a" stroke="#14032a" stroke-width="1.51"/><path d="M836,906L1105,598L789,517Z" fill="#000000" stroke="#000000" stroke-width="1.51"/><path d="M469,375L168,503L581,505Z" fill="#130326" stroke="#130326" stroke-width="1.51"/><path d="M204,80L188,367L469,375Z" fill="#230540" stroke="#230540" stroke-width="1.51"/><path d="M658,828L836,906L789,517Z" fill="#220c02" stroke="#220c02" stroke-width="1.51"/><path d="M188,367L168,503L469,375Z" fill="#210728" stroke="#210728" stroke-width="1.51"/><path d="M188,367L-72,571L168,503Z" fill="#320d13" stroke="#320d13" stroke-width="1.51"/><path d="M471,19L204,80L469,375Z" fill="#2b0443" stroke="#2b0443" stroke-width="1.51"/><path d="M836,906L1117,824L1105,598Z" fill="#2a0f03" stroke="#2a0f03" stroke-width="1.51"/><path d="M1517,70L1231,-88L1110,374Z" fill="#550a1e" stroke="#550a1e" stroke-width="1.51"/><path d="M471,19L328,-379L204,80Z" fill="#4f022c" stroke="#4f022c" stroke-width="1.51"/><path d="M948,20L589,-273L471,19Z" fill="#3c0e0e" stroke="#3c0e0e" stroke-width="1.51"/><path d="M168,503L271,931L581,505Z" fill="#170429" stroke="#170429" stroke-width="1.51"/><path d="M658,828L530,1223L836,906Z" fill="#55110e" stroke="#55110e" stroke-width="1.51"/><path d="M948,20L869,-336L589,-273Z" fill="#3a0f05" stroke="#3a0f05" stroke-width="1.51"/><path d="M1110,374L1231,-88L948,20Z" fill="#2f0b19" stroke="#2f0b19" stroke-width="1.51"/><path d="M1479,641L1110,374L1105,598Z" fill="#280e03" stroke="#280e03" stroke-width="1.51"/><path d="M1231,-88L869,-336L948,20Z" fill="#3a0f05" stroke="#3a0f05" stroke-width="1.51"/><path d="M168,503L-72,571L271,931Z" fill="#2f0c16" stroke="#2f0c16" stroke-width="1.51"/><path d="M-106,240L-72,571L188,367Z" fill="#3e0c14" stroke="#3e0c14" stroke-width="1.51"/><path d="M204,80L-106,240L188,367Z" fill="#420237" stroke="#420237" stroke-width="1.51"/><path d="M-43,-34L-106,240L204,80Z" fill="#5e041d" stroke="#5e041d" stroke-width="1.51"/><path d="M1117,824L1479,641L1105,598Z" fill="#2c0f03" stroke="#2c0f03" stroke-width="1.51"/><path d="M349,1237L530,1223L271,931Z" fill="#66002d" stroke="#66002d" stroke-width="1.51"/><path d="M271,931L530,1223L658,828Z" fill="#600722" stroke="#600722" stroke-width="1.51"/><path d="M836,906L1244,1108L1117,824Z" fill="#521306" stroke="#521306" stroke-width="1.51"/><path d="M1117,824L1523,849L1479,641Z" fill="#651206" stroke="#651206" stroke-width="1.51"/><path d="M1479,641L1538,328L1110,374Z" fill="#451205" stroke="#451205" stroke-width="1.51"/><path d="M17,-253L-43,-34L204,80Z" fill="#680611" stroke="#680611" stroke-width="1.51"/><path d="M589,-273L328,-379L471,19Z" fill="#470724" stroke="#470724" stroke-width="1.51"/><path d="M869,-336L328,-379L589,-273Z" fill="#400c17" stroke="#400c17" stroke-width="1.51"/><path d="M1409,-344L1228,-305L1231,-88Z" fill="#660e07" stroke="#660e07" stroke-width="1.51"/><path d="M1231,-88L1228,-305L869,-336Z" fill="#400f05" stroke="#400f05" stroke-width="1.51"/><path d="M1538,328L1517,70L1110,374Z" fill="#59052a" stroke="#59052a" stroke-width="1.51"/><path d="M921,1302L1244,1108L836,906Z" fill="#521306" stroke="#521306" stroke-width="1.51"/><path d="M-48,1112L349,1237L271,931Z" fill="#77001f" stroke="#77001f" stroke-width="1.51"/><path d="M-72,571L-41,964L271,931Z" fill="#670c0f" stroke="#670c0f" stroke-width="1.51"/><path d="M-48,1112L-41,964L-349,1134Z" fill="#880506" stroke="#880506" stroke-width="1.51"/><path d="M328,-379L17,-253L204,80Z" fill="#5d041e" stroke="#5d041e" stroke-width="1.51"/><path d="M349,1237L921,1302L530,1223Z" fill="#590e17" stroke="#590e17" stroke-width="1.51"/><path d="M530,1223L921,1302L836,906Z" fill="#521306" stroke="#521306" stroke-width="1.51"/><path d="M1244,1108L1523,849L1117,824Z" fill="#810e05" stroke="#810e05" stroke-width="1.51"/><path d="M1479,641L1744,307L1538,328Z" fill="#54120d" stroke="#54120d" stroke-width="1.51"/><path d="M1228,-305L1409,-344L869,-336Z" fill="#4c0f06" stroke="#4c0f06" stroke-width="1.51"/><path d="M869,-336L1409,-344L328,-379Z" fill="#3a0f05" stroke="#3a0f05" stroke-width="1.51"/><path d="M1517,70L1409,-344L1231,-88Z" fill="#7b0a07" stroke="#7b0a07" stroke-width="1.51"/><path d="M-41,964L-48,1112L271,931Z" fill="#820310" stroke="#820310" stroke-width="1.51"/><path d="M-401,990L-41,964L-72,571Z" fill="#720c07" stroke="#720c07" stroke-width="1.51"/><path d="M1517,70L1744,-361L1409,-344Z" fill="#880506" stroke="#880506" stroke-width="1.51"/><path d="M1538,328L1744,307L1517,70Z" fill="#67002e" stroke="#67002e" stroke-width="1.51"/><path d="M1851,637L1744,307L1479,641Z" fill="#521306" stroke="#521306" stroke-width="1.51"/><path d="M-106,240L-398,549L-72,571Z" fill="#3a0f05" stroke="#3a0f05" stroke-width="1.51"/><path d="M-43,-34L-345,93L-106,240Z" fill="#60041c" stroke="#60041c" stroke-width="1.51"/><path d="M-381,-261L-345,93L-43,-34Z" fill="#6d0808" stroke="#6d0808" stroke-width="1.51"/><path d="M-423,264L-398,549L-106,240Z" fill="#420b1a" stroke="#420b1a" stroke-width="1.51"/><path d="M1744,307L1768,81L1517,70Z" fill="#720024" stroke="#720024" stroke-width="1.51"/><path d="M-345,93L-423,264L-106,240Z" fill="#51022b" stroke="#51022b" stroke-width="1.51"/><path d="M1523,849L1851,637L1479,641Z" fill="#5e1206" stroke="#5e1206" stroke-width="1.51"/><path d="M1744,307L1851,637L1768,81Z" fill="#5c0b1c" stroke="#5c0b1c" stroke-width="1.51"/><path d="M1738,1111L1723,930L1523,849Z" fill="#a30003" stroke="#a30003" stroke-width="1.51"/><path d="M1518,1295L1523,849L1244,1108Z" fill="#a00204" stroke="#a00204" stroke-width="1.51"/><path d="M1723,930L1851,637L1523,849Z" fill="#800f05" stroke="#800f05" stroke-width="1.51"/><path d="M921,1302L1518,1295L1244,1108Z" fill="#721106" stroke="#721106" stroke-width="1.51"/><path d="M-398,549L-401,990L-72,571Z" fill="#430f05" stroke="#430f05" stroke-width="1.51"/><path d="M-423,264L-401,990L-398,549Z" fill="#3a0f05" stroke="#3a0f05" stroke-width="1.51"/><path d="M328,-379L-381,-261L17,-253Z" fill="#6d0808" stroke="#6d0808" stroke-width="1.51"/><path d="M17,-253L-381,-261L-43,-34Z" fill="#6d0808" stroke="#6d0808" stroke-width="1.51"/><path d="M-345,93L-381,-261L-423,264Z" fill="#690610" stroke="#690610" stroke-width="1.51"/><path d="M1518,1295L1738,1111L1523,849Z" fill="#a30003" stroke="#a30003" stroke-width="1.51"/><path d="M1723,930L1738,1111L1851,637Z" fill="#a00204" stroke="#a00204" stroke-width="1.51"/><path d="M-401,990L-349,1134L-41,964Z" fill="#880506" stroke="#880506" stroke-width="1.51"/><path d="M-48,1112L-349,1134L349,1237Z" fill="#880506" stroke="#880506" stroke-width="1.51"/><path d="M1409,-344L1744,-361L328,-379Z" fill="#4a1006" stroke="#4a1006" stroke-width="1.51"/><path d="M1768,81L1744,-361L1517,70Z" fill="#880506" stroke="#880506" stroke-width="1.51"/><path d="M1851,637L1744,-361L1768,81Z" fill="#77001f" stroke="#77001f" stroke-width="1.51"/></svg>